<svg xmlns="http://www.w3.org/2000/svg" fill="none" viewBox="0 0 96 36"><rect width="96" height="36" fill="#303030" rx="10"/><path fill="#fff" d="M25.54 17.636c0-2.79-1.67-4.483-3.93-4.483-2.266 0-3.932 1.692-3.932 4.483 0 2.787 1.666 4.483 3.933 4.483 2.258 0 3.929-1.691 3.929-4.483zm-1.304 0c0 2.127-1.125 3.282-2.625 3.282-1.505 0-2.625-1.155-2.625-3.282 0-2.126 1.12-3.28 2.625-3.28 1.5 0 2.625 1.154 2.625 3.28zM30.255 22h1.24v-5.446h2.85V22h1.25v-6.546h-5.34V22zm7.043 2.454h1.274v-3.473h.077c.23.418.699 1.147 1.892 1.147 1.585 0 2.736-1.27 2.736-3.388 0-2.122-1.168-3.37-2.749-3.37-1.214 0-1.653.74-1.88 1.146h-.106v-1.061h-1.244v9zm1.248-5.727c0-1.368.597-2.275 1.71-2.275 1.154 0 1.734.976 1.734 2.275 0 1.313-.597 2.314-1.735 2.314-1.095 0-1.709-.937-1.709-2.314zm8.915 3.405c1.846 0 3.051-1.35 3.051-3.375 0-2.037-1.206-3.388-3.05-3.388-1.846 0-3.052 1.351-3.052 3.388 0 2.024 1.206 3.375 3.051 3.375zm.005-1.07c-1.206 0-1.769-1.052-1.769-2.31 0-1.252.563-2.317 1.769-2.317 1.197 0 1.76 1.065 1.76 2.318 0 1.257-.563 2.31-1.76 2.31zm7.29 1.07c1.427 0 2.437-.703 2.727-1.768l-1.206-.218c-.23.618-.784.933-1.508.933-1.091 0-1.824-.707-1.858-1.968h4.653v-.452c0-2.365-1.415-3.29-2.898-3.29-1.824 0-3.025 1.39-3.025 3.4 0 2.034 1.184 3.363 3.115 3.363zm-1.841-3.976c.05-.929.724-1.734 1.76-1.734.988 0 1.636.733 1.64 1.734h-3.4zM58.978 22h1.274v-2.616h.826L63.051 22h1.581l-2.565-3.362 2.536-3.184h-1.577l-2.16 2.745h-.614v-2.745h-1.274V22zm6.278-5.446h2.143V22h1.245v-5.446h2.134v-1.1h-5.522v1.1zm9.386 5.578c1.428 0 2.438-.703 2.728-1.768l-1.206-.218c-.23.618-.784.933-1.509.933-1.09 0-1.824-.707-1.858-1.968h4.654v-.452c0-2.365-1.415-3.29-2.898-3.29-1.824 0-3.026 1.39-3.026 3.4 0 2.034 1.185 3.363 3.115 3.363zm-1.84-3.976c.05-.929.724-1.734 1.76-1.734.988 0 1.636.733 1.64 1.734h-3.4z"/></svg>