<svg xmlns="http://www.w3.org/2000/svg" fill="none" viewBox="0 0 76 32"><rect width="76" height="32" fill="#3DDC84" rx="3"/><path fill="#000" d="M20.959 20h3.345c2.028 0 2.945-1.01 2.945-2.348 0-1.35-.946-2.114-1.811-2.16v-.086c.8-.204 1.47-.75 1.47-1.84 0-1.292-.895-2.293-2.753-2.293h-3.196V20zm1.317-1.13v-2.795h1.947c1.057 0 1.717.682 1.717 1.513 0 .733-.498 1.283-1.764 1.283h-1.9zm0-3.822v-2.655h1.798c1.044 0 1.542.55 1.542 1.275 0 .843-.69 1.38-1.576 1.38h-1.764zm9.19 5.084c1.844 0 3.05-1.35 3.05-3.375 0-2.037-1.206-3.388-3.05-3.388-1.846 0-3.052 1.351-3.052 3.388 0 2.024 1.206 3.375 3.051 3.375zm.003-1.07c-1.206 0-1.768-1.052-1.768-2.31 0-1.252.563-2.317 1.768-2.317 1.198 0 1.76 1.065 1.76 2.318 0 1.257-.562 2.31-1.76 2.31zm5.718-.848v-4.76H35.94V20h1.385l2.872-4.764V20h1.248v-6.546h-1.372l-2.885 4.76zm2.34-6.975c0 .43-.239.81-.836.81-.605 0-.83-.384-.83-.81h-1.045c0 .958.73 1.619 1.875 1.619 1.155 0 1.884-.66 1.884-1.62h-1.048zm2.819 3.315h2.143V20h1.244v-5.446h2.135v-1.1h-5.523v1.1zm8.119 3.66v-4.76h-1.25V20h1.386l2.872-4.764V20h1.249v-6.546h-1.373l-2.884 4.76z"/></svg>