<svg xmlns="http://www.w3.org/2000/svg" fill="none" viewBox="0 0 96 36"><rect width="96" height="36" fill="#303030" rx="10"/><path fill="#fff" d="M31.207 16.11c-.298-1.866-1.76-2.957-3.605-2.957-2.258 0-3.924 1.692-3.924 4.483 0 2.792 1.657 4.483 3.924 4.483 1.918 0 3.32-1.201 3.605-2.927l-1.33-.005c-.225 1.117-1.162 1.73-2.266 1.73-1.496 0-2.625-1.146-2.625-3.28 0-2.119 1.125-3.282 2.63-3.282 1.111 0 2.044.627 2.262 1.756h1.33zm1.107.444h2.144V22h1.244v-5.446h2.135v-1.1h-5.523v1.1zm7.676 7.9c1.053 0 1.717-.55 2.097-1.58l2.706-7.407-1.377-.013-1.657 5.08h-.069l-1.657-5.08h-1.364l2.395 6.631-.158.435c-.324.87-.78.942-1.478.75l-.307 1.044c.153.068.485.14.87.14zm4.825-.566h1.261V22h4.564v1.888h1.245v-2.992h-1.006v-5.442H46.43l-.205 2.442c-.136 1.65-.336 2.51-.877 3h-.533v2.992zm1.896-2.992c.435-.61.597-1.623.725-3l.136-1.35h2.063v4.35H46.71zm9.24 1.236c1.428 0 2.438-.703 2.727-1.768l-1.206-.218c-.23.618-.784.933-1.508.933-1.091 0-1.824-.707-1.858-1.968h4.653v-.452c0-2.365-1.415-3.29-2.898-3.29-1.823 0-3.025 1.39-3.025 3.4 0 2.034 1.185 3.363 3.115 3.363zm-1.84-3.976c.05-.929.724-1.734 1.759-1.734.989 0 1.636.733 1.64 1.734h-3.4zm7.31-2.701h-1.248V22h1.248v-2.719h2.834V22H65.5v-6.546h-1.245v2.724h-2.833v-2.724zm4.971 1.099h2.144V22h1.244v-5.446h2.135v-1.1h-5.523v1.1z"/></svg>