<svg xmlns="http://www.w3.org/2000/svg" fill="none" viewBox="0 0 96 36"><rect width="96" height="36" fill="#303030" rx="10"/><path fill="#fff" d="M14.028 14.406h2.72V22h1.312v-7.594h2.723v-1.133h-6.755v1.133zm10.017 7.726c1.427 0 2.437-.703 2.727-1.768l-1.206-.218c-.23.618-.784.933-1.508.933-1.091 0-1.824-.707-1.858-1.968h4.653v-.452c0-2.365-1.415-3.29-2.898-3.29-1.824 0-3.025 1.39-3.025 3.4 0 2.034 1.184 3.363 3.115 3.363zm-1.841-3.976c.051-.929.724-1.734 1.76-1.734.988 0 1.636.733 1.64 1.734h-3.4zm6.916-2.701h-1.398l2.012 3.272L27.697 22h1.398l1.47-2.446L32.039 22h1.393l-2.058-3.273 2.042-3.273h-1.394l-1.457 2.549-1.445-2.549zm6.852 0h-1.248V22h1.248v-2.719h2.834V22h1.244v-6.546h-1.244v2.724h-2.834v-2.724zm8.54 6.677c1.845 0 3.051-1.35 3.051-3.375 0-2.037-1.206-3.388-3.05-3.388-1.846 0-3.052 1.351-3.052 3.388 0 2.024 1.206 3.375 3.051 3.375zm.004-1.07c-1.206 0-1.768-1.052-1.768-2.31 0-1.252.562-2.317 1.768-2.317 1.198 0 1.76 1.065 1.76 2.318 0 1.257-.562 2.31-1.76 2.31zM48.47 22h.409c1.428 0 1.952-1.057 2.054-3.222l.102-2.224h2.14V22h1.248v-6.546h-4.568l-.115 2.898c-.081 2.02-.311 2.544-1.04 2.544h-.234L48.47 22zm10.41.132c1.844 0 3.05-1.35 3.05-3.375 0-2.037-1.206-3.388-3.05-3.388-1.846 0-3.052 1.351-3.052 3.388 0 2.024 1.206 3.375 3.051 3.375zm.003-1.07c-1.205 0-1.768-1.052-1.768-2.31 0-1.252.563-2.317 1.768-2.317 1.198 0 1.76 1.065 1.76 2.318 0 1.257-.562 2.31-1.76 2.31zm8.654-5.608h-4.184V22h1.257v-5.446h2.927v-1.1zm2.595 4.76v-4.76h-1.248V22h1.385l2.872-4.764V22h1.249v-6.546h-1.373l-2.885 4.76zm7.22 0v-4.76h-1.25V22h1.386l2.872-4.764V22h1.248v-6.546h-1.372l-2.885 4.76z"/></svg>